<svg viewBox="0 0 92 28" xmlns="http://www.w3.org/2000/svg"><defs/><g><path d="M14.2799,4.2089 Q17.3906,4.2089 19.0506,5.5878 Q20.7105,6.9667 20.7105,9.5023 Q20.7105,10.8878 19.9393,11.9595 Q19.1682,13.0313 17.7305,13.6456 Q19.2858,14.1553 19.972,15.3055 Q20.6582,16.4557 20.6582,18.1418 L20.6582,19.671 Q20.6582,20.5467 20.8804,20.965 Q21.1026,21.3832 21.6123,21.4616 L22.2397,21.54 L22.2397,23.2261 L20.8542,23.2261 Q19.3512,23.2261 18.7173,22.1805 Q18.0833,21.1349 18.0833,19.6449 L18.0833,18.1679 Q18.0833,16.6126 17.1815,15.6715 Q16.2797,14.7304 14.7635,14.7304 L10.6333,14.7304 L10.6333,21.2133 L12.7637,21.5793 L12.7637,23.2261 L5.928,23.2261 L5.928,21.5793 L8.0584,21.2133 L8.0584,6.2217 L5.928,5.8557 L5.928,4.2089 L8.0584,4.2089 L14.2799,4.2089 M10.6333,12.7045 L14.0185,12.7045 Q16.1751,12.7045 17.1554,11.8811 Q18.1356,11.0577 18.1356,9.4762 Q18.1356,7.9731 17.1946,7.0974 Q16.2535,6.2217 14.2799,6.2217 L10.6333,6.2217 L10.6333,12.7045 Z M24.2787,21.5793 L26.4091,21.2133 L26.4091,11.11 L24.2787,10.744 L24.2787,9.0841 L28.984,9.0841 L28.984,21.2133 L31.1144,21.5793 L31.1144,23.2261 L24.2787,23.2261 L24.2787,21.5793 M28.984,5.4636 L26.4091,5.4636 L26.4091,2.8365 L28.984,2.8365 L28.984,5.4636 Z M43.8972,13.528 L41.9627,13.528 L41.5445,11.8288 Q41.074,11.3844 40.3616,11.1165 Q39.6493,10.8486 38.7475,10.8486 Q37.3751,10.8486 36.7085,11.4498 Q36.0419,12.051 36.0419,12.9006 Q36.0419,13.7371 36.6301,14.2207 Q37.2182,14.7043 39.0219,15.0833 Q41.7013,15.6584 43.0084,16.6452 Q44.3154,17.632 44.3154,19.292 Q44.3154,21.1741 42.7927,22.3373 Q41.27,23.5006 38.8128,23.5006 Q37.2052,23.5006 35.9243,23.1281 Q34.6434,22.7556 33.637,22.0498 L33.6239,18.8214 L35.5583,18.8214 L36.0419,20.7166 Q36.4863,21.1218 37.2509,21.3048 Q38.0155,21.4878 38.8128,21.4878 Q40.1852,21.4878 40.9629,20.9323 Q41.7406,20.3768 41.7406,19.4749 Q41.7406,18.6254 41.0936,18.0764 Q40.4466,17.5275 38.6429,17.1223 Q36.0681,16.5603 34.761,15.5931 Q33.454,14.6259 33.454,12.979 Q33.454,11.2537 34.9244,10.0382 Q36.3948,8.8227 38.7475,8.8227 Q40.3551,8.8227 41.636,9.2409 Q42.9169,9.6592 43.7664,10.4042 L43.8972,13.528 Z M46.3413,21.5793 L48.4717,21.2133 L48.4717,11.11 L46.3413,10.744 L46.3413,9.0841 L50.7721,9.0841 L50.9551,11.1884 Q51.6609,10.0643 52.7261,9.4435 Q53.7914,8.8227 55.1507,8.8227 Q57.438,8.8227 58.6927,10.1624 Q59.9475,11.5021 59.9475,14.2991 L59.9475,21.2133 L62.0779,21.5793 L62.0779,23.2261 L55.2422,23.2261 L55.2422,21.5793 L57.3726,21.2133 L57.3726,14.3514 Q57.3726,12.4823 56.6341,11.6981 Q55.8957,10.9139 54.3795,10.9139 Q53.2685,10.9139 52.4124,11.4498 Q51.5563,11.9857 51.0466,12.9137 L51.0466,21.2133 L53.177,21.5793 L53.177,23.2261 L46.3413,23.2261 L46.3413,21.5793 Z M63.6986,10.9923 L63.6986,9.0841 L65.9075,9.0841 L65.9075,7.2934 Q65.9075,5.0323 67.0904,3.7971 Q68.2732,2.562 70.3906,2.562 Q70.835,2.562 71.2859,2.6339 Q71.7368,2.7058 72.2858,2.8365 L71.9721,4.797 Q71.7368,4.7447 71.4036,4.7055 Q71.0703,4.6663 70.7174,4.6663 Q69.5802,4.6663 69.0313,5.3394 Q68.4823,6.0126 68.4823,7.2934 L68.4823,9.0841 L71.4362,9.0841 L71.4362,10.9923 L68.4823,10.9923 L68.4823,21.2133 L70.6128,21.5793 L70.6128,23.2261 L63.777,23.2261 L63.777,21.5793 L65.9075,21.2133 L65.9075,10.9923 L63.6986,10.9923 Z M82.6767,21.54 Q81.9839,22.5072 80.9841,23.0039 Q79.9842,23.5006 78.6641,23.5006 Q76.0762,23.5006 74.6188,21.625 Q73.1615,19.7494 73.1615,16.691 L73.1615,16.4165 Q73.1615,13.0052 74.6188,10.9139 Q76.0762,8.8227 78.6902,8.8227 Q79.945,8.8227 80.9056,9.2867 Q81.8663,9.7507 82.546,10.6264 L82.546,4.8624 L80.4155,4.4964 L80.4155,2.8365 L82.546,2.8365 L85.1208,2.8365 L85.1208,21.2133 L87.2513,21.5793 L87.2513,23.2261 L82.8858,23.2261 L82.6767,21.54 M75.7364,16.691 Q75.7364,18.8214 76.6121,20.1154 Q77.4878,21.4093 79.3176,21.4093 Q80.4678,21.4093 81.252,20.8865 Q82.0362,20.3637 82.546,19.4096 L82.546,12.8483 Q82.0493,11.9595 81.252,11.4367 Q80.4547,10.9139 79.3437,10.9139 Q77.5008,10.9139 76.6186,12.4431 Q75.7364,13.9724 75.7364,16.4165 L75.7364,16.691 Z " fill="rgb(34,34,34)" opacity="1"/></g></svg>