<?xml version="1.0" encoding="utf-8"?>
<svg xmlns="http://www.w3.org/2000/svg" xmlns:xlink="http://www.w3.org/1999/xlink" version= "1.1" width="92px" height="28px" viewBox="314 626 92 28">
<rect x="314" y="626" width="92" height="28" fill="rgb(255,255,255)"/>
<g id="layer1">
<g style="fill:rgb(0,0,0); fill-opacity:1.0; stroke-linejoin: miter">
<path d="M316.44128,628.23364L328.0612,628.2737L339.6811,628.3137Q339.6415,639.9341,339.60193,651.5545Q327.98203,651.51544,316.36212,651.4764L316.44128,628.23364"/>
</g>
<g>
<g style="fill:rgb(0,0,0); fill-opacity:1.0; stroke-linejoin: miter">
<path d="M358.37378,632.22485Q358.09518,632.2282,357.89737,632.32385Q357.64148,632.4475,357.45905,632.6251Q357.29807,632.7819,357.14578,633.0764Q357.037,633.28674,357.0326,633.61505Q357.02844,633.9222,357.13147,634.13544Q357.25522,634.39136,357.43286,634.5738Q357.61044,634.7562,357.8629,634.8867Q358.0733,634.99554,358.38043,634.99963Q358.4025,634.99994,358.42407,634.99963Q358.70285,634.9963,358.90076,634.90063Q359.15665,634.777,359.33914,634.5994Q359.5216,634.4218,359.6521,634.1694Q359.7826,633.9168,359.78616,633.6521Q359.79,633.3662,359.66635,633.1103Q359.52206,632.81177,359.36533,632.6508Q359.1877,632.46826,358.93524,632.33777Q358.72482,632.229,358.41772,632.2249Q358.3955,632.22455,358.37378,632.22485 Z M345.0368,633.9941L347.13373,634.0223Q348.9553,634.0467,349.83554,634.7577Q350.73663,635.49,350.7184,636.8456Q350.7087,637.56573,350.46848,638.1028Q350.22833,638.6291,349.7355,639.04626Q349.19986,639.49457,348.56168,639.68713Q347.9566,639.8673,347.1362,639.8772Q347.04443,639.8783,346.94998,639.87726L346.94907,639.87726L344.95807,639.8505L345.0368,633.9941 Z M397.47678,638.9164Q397.53494,638.91565,397.59415,638.91644Q399.1616,638.9375,400.108,640.24255L400.03674,645.5378Q398.79724,647.152,397.1567,647.1717Q397.11353,647.1722,397.07013,647.17163L397.0492,647.15015Q396.38202,647.1412,395.85547,646.91156Q394.25525,646.1804,394.29697,643.07733Q394.3243,641.04395,395.165,639.9642Q395.96426,638.9346,397.47678,638.9164 Z M341.41632,632.2611L341.4035,633.2143Q341.3992,633.532,341.71594,633.6104Q341.90598,633.6553,342.9728,633.88153L342.80658,646.2406L341.54282,646.4886Q341.22412,646.5584,341.21985,646.87616L341.2073,647.8081L342.76407,647.82904L344.8716,647.8573L346.4284,647.87823L346.44095,646.9463Q346.4428,646.80865,346.33844,646.6907Q346.24457,646.5835,346.09674,646.54974Q345.92783,646.5051,344.89294,646.2687L344.95874,641.37585L346.34607,641.39453Q346.80145,641.40063,346.99036,641.5303Q347.21082,641.6816,347.37726,641.90625L351.3377,647.51Q351.58575,647.9688,352.15762,647.97644L352.84604,647.9857L354.0216,648.0016L354.41342,648.00684L354.4262,647.05365Q354.4305,646.7361,354.1036,646.6576L354.107,646.65753L354.1244,646.6578Q354.0189,646.62445,352.90933,646.4295L349.614,641.7774Q349.33368,641.3606,348.9237,641.12195Q349.70972,640.9631,350.5419,640.5188Q351.24603,640.14703,351.7519,639.55Q352.25775,638.95294,352.52127,638.2574Q352.79602,637.5196,352.8064,636.7465Q352.8198,635.751,352.50232,634.9418Q352.195,634.16437,351.48285,633.56165Q350.7811,632.9696,349.71533,632.6694Q348.59668,632.35767,347.1564,632.3383L342.97314,632.2821L341.41632,632.2611 Z M355.8106,637.0518L355.7984,637.9626Q355.7964,638.11084,355.89014,638.22864Q355.98386,638.3464,356.12112,638.38Q356.31116,638.425,357.3783,638.63L357.27304,646.45636L356.00952,646.68304Q355.87143,646.713,355.77457,646.8282Q355.67767,646.9434,355.67566,647.0916L355.66315,648.0236L360.7254,648.09174L360.73795,647.1597Q360.73996,647.0114,360.64618,646.8937Q360.55243,646.77594,360.41516,646.7423Q360.2251,646.6973,359.17938,646.48206L359.30554,637.0988L355.8106,637.0518 Z M366.23083,637.0144Q364.38702,637.0366,363.34073,637.92633Q362.2907,638.8125,362.27307,640.12573Q362.2557,641.4178,363.15637,642.1819Q363.6489,642.5805,364.1226,642.7987Q364.54376,642.98444,366.13602,643.5249Q366.54773,643.62573,367.04224,643.876Q367.34735,644.0284,367.68112,644.4143Q367.94193,644.71436,367.93365,645.3287Q367.92566,645.9217,367.347,646.42236Q366.73547,646.92816,365.75665,646.94Q365.70673,646.9406,365.65585,646.93994Q364.27902,646.9214,363.427,646.4755Q363.3999,646.1256,363.3624,645.76495Q363.33548,645.4044,363.31625,645.2559Q363.30756,645.11804,363.30795,645.0863Q363.24786,644.83124,362.99365,644.8279L362.21,644.8174L362.17157,647.6769Q363.91116,648.2829,365.7222,648.30725Q365.79672,648.3082,365.87024,648.3074Q367.5096,648.2876,368.63766,647.32947Q369.71985,646.4119,369.74103,644.83386Q369.75745,643.61597,368.87717,642.905Q368.35336,642.47424,367.97394,642.33154L366.93073,641.9255Q366.73053,641.84863,366.2454,641.6939Q365.77066,641.5498,365.59134,641.4944Q364.7792,641.2292,364.35175,640.7257Q364.09055,640.4574,364.09808,639.89606Q364.10532,639.35596,364.69394,638.9084Q365.29666,638.4513,366.1251,638.4414Q366.16446,638.4409,366.20438,638.4414L366.22556,638.4417Q366.85037,638.4501,367.90616,638.7079Q367.9328,639.0896,367.9702,639.46094Q367.99713,639.82135,368.0163,639.97Q368.0249,640.11835,368.02463,640.1396Q368.08405,640.4475,368.39117,640.45166L369.22778,640.4628L369.25555,638.3977L369.2657,637.6457Q367.5428,637.0351,366.43542,637.0146L366.4354,637.0146Q366.3319,637.01324,366.23083,637.0144 Z M377.9359,637.1496Q375.9828,637.17303,374.38675,638.85864L374.38647,638.87976L374.23297,637.6914Q374.11118,637.29785,373.71933,637.29254L372.5861,637.2773L371.0293,637.2564L371.01703,638.1671Q371.01233,638.51666,371.30798,638.5842Q371.47675,638.63947,372.56488,638.8553L372.45953,646.6924L371.19614,646.9084Q370.89874,646.96796,370.894,647.31744L370.88177,648.2282L375.93353,648.2962L375.94577,647.3855Q375.95044,647.03595,375.623,646.96796Q374.39804,646.6867,374.36624,646.6863L374.45367,640.1836Q375.8137,638.7071,377.38483,638.6881Q377.42807,638.6876,377.47144,638.6882Q379.76962,638.7192,379.73404,641.3668L379.6402,648.34595L383.15628,648.3933L383.16882,647.4613Q383.17337,647.1225,382.8249,647.0436Q382.56128,646.9553,381.5893,646.7622L381.6619,641.36096Q381.68698,639.49695,380.77042,638.34076Q379.83282,637.1735,378.0536,637.14966Q377.99457,637.14886,377.9359,637.1496 Z M389.89514,632.7137Q388.2177,632.7339,387.27316,633.6933Q386.2428,634.6964,386.21704,636.6132L386.2028,637.6723L384.4659,637.6489L384.45538,638.4326Q384.4504,638.8033,384.9782,638.93744L386.18356,639.10205L386.0795,646.84375L384.7312,647.0692Q384.41266,647.12854,384.40793,647.478L384.39545,648.4099L389.7648,648.4822L389.7773,647.55023Q389.78204,647.2007,389.46518,647.13293Q388.88428,647.0086,388.01758,646.8699L388.1222,639.08575L391.23578,639.12756L391.25446,637.74023L388.0879,637.69763L388.1016,636.68097Q388.13443,634.23676,390.252,634.21124Q390.29977,634.2107,390.34863,634.2113L390.34842,634.2113L390.65576,634.2155Q390.72778,634.21643,390.79065,634.2157Q391.0512,634.2125,391.15408,634.17975Q391.35614,634.11896,391.35867,633.9283L391.41415,632.9545Q390.65463,632.7219,390.05096,632.71387Q389.9723,632.71277,389.89514,632.7137 Z M398.4313,632.59344L398.4185,633.54663Q398.41406,633.87494,398.74152,633.9428Q398.93155,633.9878,400.18903,634.2165L400.12836,638.7281Q398.97647,637.4167,397.15762,637.38525L397.15927,637.38525Q397.08752,637.3843,397.01666,637.38513Q394.94373,637.4101,393.64218,638.99036Q392.33963,640.54065,392.3059,643.0506Q392.27002,645.7194,393.38312,647.22797Q394.47595,648.6726,396.39288,648.6984Q396.45547,648.6993,396.51758,648.69855Q398.58823,648.67365,400.10342,646.884L400.2657,648.21027Q400.38724,648.625,400.7791,648.6302L403.4691,648.66644L403.48187,647.7132Q403.48633,647.38495,403.18005,647.31726Q402.9481,647.24,401.92334,647.0356L402.11685,632.64294L398.4313,632.59344 Z"/>
</g>
</g>
</g>
</svg>