<?xml version="1.0" encoding="utf-8"?>
<svg xmlns="http://www.w3.org/2000/svg" xmlns:xlink="http://www.w3.org/1999/xlink" version= "1.1" width="92px" height="28px" viewBox="314 626 92 28">
<g id="layer1">
<g>
<g style="fill:rgb(0,0,0); fill-opacity:1.0; stroke-linejoin: miter">
<path d="M339.55557,628.8861Q339.10904,628.8861,338.80106,629.04004Q338.43155,629.22485,338.16977,629.4866Q337.93875,629.7174,337.72318,630.14856Q337.5691,630.4566,337.56903,630.9339Q337.56897,631.3803,337.72302,631.6883Q337.9077,632.0578,338.16943,632.31976Q338.43115,632.5815,338.80072,632.7662Q339.10864,632.92035,339.55518,632.92035Q340.00165,632.9205,340.3096,632.76636Q340.67917,632.58167,340.941,632.32007Q341.2028,632.0582,341.38754,631.6886Q341.57236,631.319,341.57242,630.9342Q341.57248,630.51843,341.38773,630.1489Q341.17218,629.7177,340.94128,629.48676Q340.67953,629.225,340.30997,629.0403Q340.002,628.88617,339.55557,628.8861 Z M395.94,635.63586Q395.94757,635.63586,395.95502,635.63586L395.95502,635.63586Q395.9629,635.63586,395.97083,635.63586 Z M351.27234,635.6931Q351.27875,635.6931,351.28516,635.6931L351.28503,635.6931Q351.29407,635.6931,351.30316,635.6931 Z M323.18777,631.71765Q325.8362,631.71783,327.12943,632.7343Q328.45355,633.7815,328.45334,635.75244Q328.45322,636.79956,328.1143,637.5847Q327.77554,638.35443,327.0672,638.97034Q326.29727,639.6324,325.37332,639.92487Q324.38797,640.2327,323.0022,640.23254L320.13828,640.23224L320.13913,631.71735 Z M396.6327,637.8532Q398.9115,637.8535,400.3126,639.7321L400.31183,647.43085Q398.4946,649.8634,396.0311,649.8632L396.00034,649.83234Q395.03024,649.8322,394.2604,649.50885Q391.92007,648.47705,391.92047,643.96564Q391.92078,641.0093,393.12192,639.4233Q394.30768,637.8529,396.6327,637.8532 Z M314.84256,629.26874L314.84244,630.65436Q314.8424,631.11646,315.30438,631.22424Q315.58145,631.2858,317.13657,631.59393L317.1347,649.56305L315.30243,649.94775Q314.84048,650.0555,314.84042,650.5173L314.8403,651.87225L322.43124,651.873L322.43134,650.51794Q322.4314,650.318,322.27747,650.14844Q322.13892,649.9945,321.92334,649.94836Q321.67706,649.8867,320.16806,649.5633L320.16876,642.44946L322.18582,642.44965Q322.84793,642.44977,323.1251,642.6346Q323.44852,642.85016,323.6948,643.17365L329.56042,651.24255Q329.92987,651.90454,330.76135,651.90466L334.04095,651.9049L334.04108,650.51917Q334.04114,650.0574,333.56384,649.9496L333.59467,649.9496Q333.44067,649.9033,331.8239,649.6415L326.94363,642.94293Q326.52805,642.34247,325.92746,642.0036Q327.067,641.7574,328.26804,641.0955Q329.2843,640.54126,330.0081,639.66364Q330.73184,638.786,331.10153,637.7699Q331.48657,636.6919,331.48666,635.56793Q331.48682,634.1205,331.00958,632.9503Q330.54773,631.82623,329.5008,630.96387Q328.46936,630.11694,326.91425,629.7009Q325.28214,629.26984,323.188,629.26953 Z M335.85944,635.9532L335.85934,637.27747Q335.85928,637.49316,335.9979,637.66235Q336.13638,637.83167,336.33658,637.87805Q336.61374,637.9397,338.16888,638.217L338.16776,649.5959L336.33536,649.94977Q336.13516,649.9958,335.99667,650.1652Q335.85806,650.33466,335.858,650.55023L335.8579,651.90515L343.21786,651.9058L343.21793,650.55084Q343.218,650.33527,343.07944,650.16595Q342.94083,649.9965,342.7407,649.9504Q342.4636,649.8886,340.9393,649.5961L340.94064,635.95374 Z M368.19403,635.66394Q365.25308,635.6635,362.8971,638.2194L362.8971,638.2502L362.65088,636.52576Q362.4662,635.9558,361.89642,635.9558L357.9856,635.9553L357.9855,637.2796Q357.98544,637.7878,358.41647,637.8802Q358.6628,637.9572,360.24875,638.2499L360.24762,649.6442L358.41525,649.98285Q357.98422,650.0751,357.98416,650.5831L357.98404,651.9072L365.32855,651.9081L365.32864,650.5839Q365.3287,650.07587,364.8514,649.98346Q363.0653,649.59827,363.01917,649.59827L363.0201,640.14417Q365.02197,637.91174,367.37778,637.912Q370.71893,637.91223,370.71857,641.7616L370.7176,651.90845L375.8296,651.90906L375.82968,650.5541Q375.82974,650.0614,375.32156,649.9536Q374.93668,649.8302,373.52017,649.5686L373.52097,641.71576Q373.52118,639.0058,372.16638,637.3426Q370.78082,635.66425,368.19403,635.66394 Z M385.54745,628.9831Q382.94537,628.9829,381.5286,630.4609Q380.05035,631.9389,380.0501,634.726L380.04996,636.26575L377.5248,636.26544L377.5247,637.4048Q377.52463,637.9437,378.2945,638.12866L380.0497,638.3444L380.04865,649.6L378.0931,649.9539Q377.63126,650.04626,377.6312,650.5543L377.63107,651.9092L385.43747,651.91L385.4376,650.5551Q385.43765,650.04706,384.97574,649.9545Q384.12888,649.7851,382.8664,649.6003L382.86752,638.2831L387.39426,638.2835L387.39444,636.2665L382.79077,636.266L382.7909,634.78766Q382.79123,631.154,386.00916,631.1543L386.45572,631.15436Q386.99463,631.15436,387.17938,631.09283Q387.472,631.0004,387.47205,630.7233L387.53366,629.3066Q386.42508,628.9832,385.54745,628.9831 Z M397.72687,628.64557L397.7267,630.0314Q397.72665,630.50867,398.2039,630.6012Q398.48102,630.66266,400.3134,630.9709L400.31274,637.53015Q398.60883,635.6418,395.95575,635.63586L395.95435,635.63586Q392.8094,635.64185,390.88943,638.0374Q389.02625,640.3161,389.02585,643.9654Q389.0255,647.8456,390.67273,650.0166Q392.2893,652.0955,395.07623,652.09576Q398.20178,652.0961,400.43478,649.38635L400.69626,651.31104Q400.881,651.9115,401.4507,651.9115L405.3616,651.912L405.36172,650.52625Q405.3618,650.0491,404.91522,649.9565Q404.57657,649.84875,403.08307,649.5714L403.08508,628.6461 Z M351.28455,635.6931Q348.40335,635.69727,346.82227,637.0785Q345.31323,638.387,345.31308,640.2964Q345.3129,642.17487,346.6369,643.26825Q347.36053,643.83795,348.0534,644.14594Q348.66925,644.4078,350.99423,645.1626Q351.5947,645.30115,352.31833,645.6554Q352.76486,645.8712,353.25748,646.4254Q353.64243,646.8567,353.6423,647.7495Q353.6422,648.612,352.81073,649.35095Q351.88678,650.1361,350.36246,650.136Q348.3608,650.1358,347.11362,649.50433Q347.06747,648.99603,347.00595,648.4726Q346.95975,647.949,346.929,647.7335Q346.9136,647.5333,346.9136,647.4872Q346.82126,647.1177,346.45175,647.1177L345.31235,647.11755L345.31198,651.27484Q347.85242,652.12195,350.48538,652.12225Q353.0106,652.12256,354.7044,650.6445Q356.25974,649.2898,356.2599,646.9954Q356.2601,645.2246,354.9668,644.2083Q354.19702,643.59235,353.6427,643.39215L352.1184,642.8221Q351.82593,642.7144,351.1176,642.49884Q350.4248,642.2985,350.1631,642.2216Q348.97754,641.85187,348.34625,641.1281Q347.96136,640.743,347.96143,639.92706Q347.9615,639.1417,348.80844,638.47974Q349.717,637.7716,350.99496,637.7718L351.0258,637.7718Q351.93423,637.7719,353.47388,638.1262Q353.52005,638.6806,353.5815,639.2193Q353.62772,639.74286,353.65848,639.95844Q353.67386,640.174,353.67386,640.2049Q353.76627,640.65137,354.21274,640.6513L355.4291,640.65155L355.4294,637.6491L355.42947,636.5557Q352.89938,635.6967,351.28552,635.6931 Z"/>
</g>
</g>
</g>
</svg>